<mxfile host="app.diagrams.net" modified="2023-05-07T12:48:13.640Z" agent="Mozilla/5.0 (Windows NT 10.0; Win64; x64) AppleWebKit/537.36 (KHTML, like Gecko) Chrome/112.0.0.0 Safari/537.36 Edg/112.0.1722.68" etag="-S92OGgWK-7GzQ5wHe9d" version="21.2.9" type="github">
  <diagram name="第 1 页" id="29I-kWuAmnqf4UAPxJTl">
    <mxGraphModel dx="1170" dy="628" grid="0" gridSize="10" guides="1" tooltips="1" connect="1" arrows="1" fold="1" page="1" pageScale="1" pageWidth="827" pageHeight="1169" math="0" shadow="0">
      <root>
        <mxCell id="0" />
        <mxCell id="1" parent="0" />
        <mxCell id="oivudZcfe434kPaOY_hB-1" value="" style="shape=image;verticalLabelPosition=bottom;labelBackgroundColor=default;verticalAlign=top;aspect=fixed;imageAspect=0;image=data:image/png,iVBORw0KGgoAAAANSUhEUgAAAvEAAAG1CAMAAAEwwGuiAAAAAXNSR0IArs4c6QAAAARnQU1BAACxjwv8YQUAAACBUExURdnZ2dra2tra2tnZ2QAAACAgIDg4OFlZWVxcXGBgYGRkZGhoaGxsbHNzc3h4eHl5eXp6eoqKiouLi42NjZLQUJiYmJubm6Ojo6urq66urr+/v8LCwsXFxdbW1tfX19nZ2dvb2+Li4unp6e7u7vHx8fLy8vX19fj4+Pn5+fz8/P///9GWlNIAAAAEdFJOU4efx9+nhZkZAAAACXBIWXMAABcRAAAXEQHKJvM/AAAUSUlEQVR4Xu3dDXviyJWG4U7SiYDxLrswOzCEpglxGqj//wO3qnTQhy3JoA+OxHnuK8FCQLn89jtqTIvi27efQ/rLt59uSD+fMv573P7eu4Hnz/jNXmb8Q3o9+v132eiucv6Mn2H8Ztn46fEzNf18PNnuiPGbvc74sySJe7xBxi9g/Ize+P18h3z8qzvHPd4g4+/cNu7xBhk/SkdNh2d8r2l8L93bwefxS2R3e/n4sT8ybCbep4t8/Nh/GbYo3q21L/Lx5JaWvh6/23e4Z3xPbn7cneN7co8H3T++kDveqzh+RT8bpY9qVhw/Oz73q5jPECyNH56CLdPNu90/vm/MzK3S8edXt4obX+LPt5kff1Df5PsMZPjhE7c/JAd/LOpbOvyQGL7B5Ie/FTO68y/Ue32cPcMXMHyDMPz7frF/mWL2+Q0YvsEzht++HXfx2iDDh6PxMb1K9kUvOLwnV7sKw78tN+fbLzQyep/Dh2bO4rVhhk/FMWV0hg/qhvfSvd2Uhi+T3Z3E4Ren8Gu9jJqJt3cUht8uV6H3MmpBepcuGsIZfHhPbmvrq+E7foOvh/fkDi3cNfyN3PEBt+EritlEHvWl2/B3vsL0qEI4Q2D4BncP78tyctut287donx6RROybzDwC5nDGvpl2GGlsz/54+V8eXVumT3XnATJPnFbl/jf3o7b21PZkQuv8E63OcxeD7PXU5q9P+YkC3/M2W+z08vG7cPsz6vl9VpxvH/o+fDz3NkcZj8AZq/npWafuEviL9726dXMJGZ/crOt/43v6G7/THAzidnXeoHZR7JjHJi9Hmavpzz7q5vt/RFzX3qPXCBT92THONAcPcxez8Ozj2Svuheb/d4/QW46YkayV11T9oWJxs1culMfs9fTbvap9CZNLz77BnI3RZ9mXzhiyiSbxQdp6ZJ9JPfVYXz2kTzg6fqZfSSPeqYeZ18gAwxumNlXklH7VDP7+4+YWuI0m7KfCmavh9mXxf+s5uEfrfebZXhfwna9dm6VvmEs7u/P87Kfy9c+0Rw9P7/9Vd4mPEV/G/it08Ma+GzPYTF5LdOffLoQ03J53Qy1psgwbsmvDi5JXw3xT5vHL520TD48+zgmu/hLiTznn4CqzjP5Z2DyWpi8Fiavhclrmf7kE3fyl/vFLnyZXvKJ+6PwrDLdF+Sv0I6RTH7lfoXn86v4fH5qky9h8s/A5LUweS1MXguT1/IKkz/Ie6niP9lNbfKLVVg96BDeHTC9yW/Dm8HcLrwZjM4/x8tPPiV7xoTJa2HyWpi8Fiav5RUmP3eX8MTsrfKJWUr2jIlMfu2fVdY+JU7JnjGRyZ/CLyPJsfqXkZTsGRP+g9XC5LUweS1MXsv9k49k90gweS23ya/iwqjpSaFTm/w8nBQaXiuuf1YZye6RKCR/3M4+nRQqc87I7pGo7Hw+z7hVEHeOBpPXwuS1WJp8FG8ZAyavpX7y9eRu+l5h8uskLh4tJ4XKJOvEO43BLflF8VmlTLJR+jBdMvmdiwtfy0mhMr9G6eN0tel8JPdVxeS1tJ58Sh6hxPLkI3nY85mffCSPfareJh/JAM/S7+QLZKxBDTb5nIw6gPLk73tW2V4cvj/lyT/wrFJNOtOoPPn0WeVkVHV+Mpi8FiavhclrGWLyiay3dk2/DKfvyYe/AmdhxZbFwf3buf38Ij/CcbsNH8XYq4EmH55mXK8nN5tf0idM726+XI198k/F5LUweS3Tnny6hN80TXrFyikjeS0kr4XktRSSv/rff67hl6BLdvGWhFf/MIRi59PfPOcnn3YSLxbOHYh+IB+T3+3daevcLF745HfhHWtB4SxXtFUM8e7jPMn3gOS1kLwWktdC8lpIXgvJayF5LSSvheS1kLwWktdSl3x4Wdi53Y/wYtklXIRrvGLWo4bkw+vCf1a+SlydfDw/NpIdaFKd/ClJkrNLkqM7JLOw1q+/CNcEyfegrvONSL4HJK+F5LWQvBaS10LyWkheC8lrIXktJK+F5LU0JL9013W4WG7ObnWOF3ILyfegIfndfyXn8PJkOJH4sI8XcgvJ96A++evMndYucbvjYetmLl4Iku9BQ+frkXwPBkm+QG7DJySvheS1kLwWktdC8lpIXgvJayF5LSSvpSH5XXiBbOG/nLYuCe9JDu9Ojki+B/XJX/83aftaZYHchk8aOj/3/7uG1+dX4aX5eCG3kHwPGpKvR/I9IHktJK+F5LWQvBaS10LyWkheC8lrGTr5nNwLguS1NCUflgvNFwktrBRK8j1oSP50XLn87d+PvAe8ktwLoj75Q+Lli4TGC7mJ5HvQ0Pl6hY8mkz2B7Kkj94IgeS0kr4XktZC8FpLX8rzkC+QBtpG8FpLXQvJauibfigxjG8lraUx+954vElpaKVQSbEuGsa0p+c2x7lViSbA7GdCi+uSvSZKsC4uEFlcKldy6kwEtUjnO52RAi0hei3LyBTK2GSSvheS1jCf5nHyXF0fyWsaYfIF8w1c08uRz8q1fx2SSryTzmaRpJ/8Vme8o3Z18n69Vjpr8jGVymyc7urs7+eJrlf/4ju4kzKD5aFN4rRI9u/s4j56RvBaS10LyWkheC8lrIXkto0/+9kvkLC719UImk3wSTkWZhZOBDkf/Z/DbdRnfw+g3L9vwJt5o5Xf5P5/wQRErt3v3F+M1pc7Hi8Qdzu70f+frMnwqx94t3GJ7CNeCpVudk+Nhf4kf2UHyz3AJ7+T1jZ/OMYm/YbWQvBaS10LyWkhei08eKqi8DoJXQvBKCF4JwSsheCUEr4TglRSCX+39/5N1YW3QuFIoBpEHv0hPnNy85x92Hz5aJ96G3hUafws+e7f9n34HlR/Ix+Cv85B1+sFdfxSDlxNg0YmE6X0M3gfty56uhbuP/6osiucco6X64EPBD1sfd7xI8rcqEHwfqoNvRvA9IHglBK+E4JUQvBKCV0LwSgheCcErIXglBK+E4JUQvBKCV0LwSgheCcErIXglBK+E4JUQvBKCV0LwSiqDP4RTVRdutz9tXeLiRbgmtxJ8H6obf9i78mdE/eBMsp7VBh9PJqs5d1K+lsSlTVKyB01qgy9/NlfpbGGC70Ft8NdwRvwqnBofLn4Vz48n+B5UBr9IkuWHz0SL1wTB96C68c0IvgcEr4TglRC8EoJXQvBKCF4JwSsheCUEr4TglRC8EoJXQvBKCF4JwSsheCUEr4TglRC8EoJXQvBK6oOPn6iUrfVZXPCT4HtQG3xY5jNepGt9ckJTz2qDP82v8/hp9fHsvXhCn9xC8H2oDd4li/BJenK+ajyFVW4g+D7UBl9e6zP9GElB8D2oDX519Nnna31+ueCnhB7IHjSpDb4BwfeA4JUQvJIhgs/JbfiM4JUQvBKCV0LwSgheCcErIXglBK+E4JUQvBKCV0LwSgheCcErIXglBK+E4JUQvBKCV1IffDhxLF/r88sFPyXqMrkNn9UGv3v3F9lan3H5z/QGgu9FbfCrVdL23Mmc3IbP6oOXcydbnC2ck9vwWW3w/lCzec/W+ozLf8otBN+H2uDdIiypna31+ciCnzm5DZ/VB1+P4HtA8EoIXgnBKyF4JQSvhOCVELwSgldC8EoIXgnBKyF4JQSvhOCVELwSglcybPAFcjcIgldC8EoIXgnBK2kIfrVuueBnJbkbRH3wl3+uWy74WUnuBlEf/G/XdcsFPyvJ3SBqgz+8++B91p1OWi2Qu0HUBp944QPqWyz4WUnuBlEbvHO+8e0W/Kwkd4NoCL7Wd8nSkz2e7Kgld4MgeCUEr4TglRC8EoJXQvBKCF4JwSsheCUEr4TglTwt+Jw8wDiCV0LwSgheCcErIXglBK+kY/BtyCjGEbwSgldC8Epqg9+4w7puwU9JsCUZxbimxs/rFvyUBFuSUYxrCD7WvfLcSUmwOxnQoobgfcNrzhaW2LqTAS2qDz7kXLPgp8TWnQxoUW3wqyS8B6R6wU+JrTsZ0KKmv1zrEHwPCF4JwSsheCUEr0Q3+JwMbQfBKyF4JQSvhOCVjCX4AvkuL47glRC8EoJXMsLgc/L9XhLBKxl18AXyrV8HwSuZSvCVZD6TRPBKJh18JZnk2L1e8DmZ7jjdG3yP505qkJmPyJ3B93nu5KjJj1gmtwWyp7s7gx/o3ElzJEHvzuDL506iu79LmF5T8KVzJ9Gvxr9ci+dOol+NwWM4BK+E4JUQvBKCV0LwSgheCcErIXglBK+E4JUQvBKCV0LwSqYS/CFJtrKZWp1lY6LGHvztH88OR7d5l30vYVLB72busE9X1Jmvzoew4f803tzKHeKdr2u39vfxe8O/Fyfv+TkS4zOZ4MOSIrtjWExn5nbvp+PqHD6T8JgGL0ehq/8T2b3Hz8nzfwbzcDFaE2p8yDkE71PdrvwxPg/euYUchk7zEPz76kzwHX0M3h89ls79tvTB+83EnbanxO9J/6o9nK/LeKh5cxuCfzLf+El4leDfwkfRhg2CRyOCV0LwSgheCcErIXglBK+E4JUQvBKCV+KDhwqChy2+8XLUAV4fjYctNB620HjYQuNhC42HLTQettB42FLV+EOSJPE9LJt1uOIvToutc7uwM9vKdwETUn2MPxSavJu/X97ie4x2s2O29SPbFb4AU/Fl48OxXK76L9nWH9mu8KXgv2VNUUDZXCpZ9lXjN+Egflrc6p1t/ZntCl8KvhfWLQb01DSxufG7dOGG62p5Ti+zrV/ZrnjHHI3HONzf+NMivGU0CfWOG+FX1/DLbPqUPdvKd5XQeIzDQ8f4Dmg8xoHGwxYaD1toPGyh8bCFxsMWGg9baDxsofGwhcbDFhoPW2g8bKHxsIXGwxYaD1toPGyh8bCFxsMWGg9baDxsofGwhcbDlkcaf13JejWX8NnvYTPbqNpVQuMxDvc3/rTYygpNm9sqTNlG1a4yGo9xeOQYL2uSVSy5xyp8mIoWjZc6F5dVrdgVvhQ80Pjfq8htQEetjvGyYvb+tnGs2BW+FNB4jEOLxvsvvtah1NlG1a4yGo9xeKjxHdB4jAONhy00HrbQeNhC42ELjYctNB620HjYQuNhC42HLTQettB42ELjYQuNhy00HrbQeNhC42ELjYctNB620HjYQuNhC42HLTQetrRofFy1Jq5LExdm2vmr2UZhq4zGYxxaNH4zfw9LCK/9/327w3pMP24bx2wXa5JhnFo03h/Hk2Ttv1asNpnt+niQp/EYhzbH+HTZveW5aZFhGo9xerzx2aqqx3SZeH/567ZxznZ1WD9eOl4mtwEdtTjGu03ixdof/EZ8yp5tFLZKaDzGoU3j26DxGAcaD1toPGyZSuMryQOA+9F42ELjYQuNhy00HrbQeNhC42ELjYctNB620HjYQuNhC42HLTQettB42ELjYQuNhy00HrbQeNhC42FLq8aHRcni8h2XN78RFmPKNgpbJTQe49Ci8bJEk7e5LceUbeS75C43NB7j8Hjj8zo/cxW+SvIA4H6PN/7yFpYcu7wtz9Lrp6y0WkkeANyv9TF+NztmK1Dus6Uo80Upw5cCGo9xeLzx/snMOhzFfbXjRWh3tlHYKqPxGIcWjW+FxmMcaDxsofGwhcbDFhoPW2g8bKHxsIXGwxYaD1toPGyh8bCFxsMWGg9baDxsofGwhcbDFhoPW2g8bJl04yvJKEAlGg9baDxsofGwhcbDlnaN383+Z+2/xPWYdsk+3yhsldF4jEOrxm+Wv1a+8Zc33+5Q/x+3jWO26ylrklWSUYBKLRp/9W0P/7+tLqm37mQlGQWo9Hjj42E8Nl59beFKMgpQqcUxPoiNT9dc9Ze/bhvnbJcsuJ2h8RiHLo0Px/IkiU/Zs43CVsn371LIErmxTG5rS0YBKrVs/MNoPMaBxsMWGg9baDxsofGwhcbDFhoPW2g8bKHxsIXGwxYaD1toPGx5vcZXkqEBGg9baDxsofGwhcbDFhoPW3Qb/zQyC4DGwxYaD1toPGxp0fjrKkmSuHiHu7z5zbAYU7ZR2Cqh8RiHtsf4zfw9rD8pyzFlG/kuud8Njcc4dGn8Y6vwSfd0yCyAdo2/rsIhXnp950qr0r0RkanBlFaNl/Xh41rxYens/W3jmO36vJq21GxEZGowpUXjD0ls9W0rtDvbKGyV0XiMQ9vn8Y+i8RgHGg9baDxsofGwhcbDFhoPWyw3vpLMF6+Kxn8g88WrovEfyHzxqmj8BzJfvCoa/4HMF6+Kxt9Dfgi8ABp/D/kh8AJo/D3kh8ALoPGtyU+GaaHxrclPhmmh8f2SHxejReP7JT8uRovGP4FkgDGg8VokGDwZjR8VSQvDofHjJxGiF703fpzrThohYaNB340f6bqTuIP8Ub24nhs/1nUnoUT++MvktjK5bXA9N35S607i1X2vJJUsa3+Mr1l3Ehi11s/j69adBEatdeOBSaLxsIXGwxYaD1toPGyh8bCFxsMWGg9baDxsofGwhcbDFhoPW2g8bKHxsIXGP1nFGyXxTDS+G3kPThCvH8I7Bg7JOl7BCNH4bqTtQbweGx/fKbObHxfJ1rc/if3fzN/Dzck/4zH+tJCFIOLuy9s2HPyTJN7nRnbslv95S8Lbb/yd/YPCRmEXHkXju5G2B/F6bPwuvj8sXFxXoe07X9y45asdntWke+NyEFnjY+uLbjt26X8Z8lzo8uYfGt969ukBuAuN70baHsTr6TE+iLWMx/IkSTf3/uDs27483xaC8LvzY3w4gpeO8bIj/OeSjhYO+vEvjLhL/rPBg2h8N9L2IF7/0PjigXi3/NdvobalY3wsr7xNvvho4XfEccJ9473iQ2l8BzS+G2l7EK9/aLzf4Q/L6TMSf4iOlQ3Xwt709p0/kP975W/wG3JHITvi7wPxmU34C2O7ofHd0PixS5/VoC80HrbQeNhC42ELjYctNB620HjYQuNhC42HLTQettB42BIbD5jx8+f/A/H+KRttUokwAAAAAElFTkSuQmCC;" vertex="1" parent="1">
          <mxGeometry x="39" y="27" width="189.55" height="110" as="geometry" />
        </mxCell>
      </root>
    </mxGraphModel>
  </diagram>
</mxfile>
